<svg width="30" height="30" viewBox="0 0 30 30" fill="none" xmlns="http://www.w3.org/2000/svg">
<g clip-path="url(#clip0_114_21)">
<path d="M5.625 21.875H2.5C1.83696 21.875 1.20107 22.1384 0.732233 22.6072C0.263392 23.0761 0 23.712 0 24.375L0 27.5C0 28.1631 0.263392 28.7989 0.732233 29.2678C1.20107 29.7366 1.83696 30 2.5 30H5.625C6.28804 30 6.92393 29.7366 7.39277 29.2678C7.86161 28.7989 8.125 28.1631 8.125 27.5V24.375C8.125 23.712 7.86161 23.0761 7.39277 22.6072C6.92393 22.1384 6.28804 21.875 5.625 21.875ZM5.625 27.5H2.5V24.375H5.625V27.5Z" fill="white"/>
<path d="M27.5 21.875H24.375C23.712 21.875 23.0761 22.1384 22.6072 22.6072C22.1384 23.0761 21.875 23.712 21.875 24.375V27.5C21.875 28.1631 22.1384 28.7989 22.6072 29.2678C23.0761 29.7366 23.712 30 24.375 30H27.5C28.1631 30 28.7989 29.7366 29.2678 29.2678C29.7366 28.7989 30 28.1631 30 27.5V24.375C30 23.712 29.7366 23.0761 29.2678 22.6072C28.7989 22.1384 28.1631 21.875 27.5 21.875ZM27.5 27.5H24.375V24.375H27.5V27.5Z" fill="white"/>
<path d="M5.625 10.9375H2.5C1.83696 10.9375 1.20107 11.2009 0.732233 11.6697C0.263392 12.1386 0 12.7745 0 13.4375L0 16.5625C0 17.2255 0.263392 17.8614 0.732233 18.3303C1.20107 18.7991 1.83696 19.0625 2.5 19.0625H5.625C6.28804 19.0625 6.92393 18.7991 7.39277 18.3303C7.86161 17.8614 8.125 17.2255 8.125 16.5625V13.4375C8.125 12.7745 7.86161 12.1386 7.39277 11.6697C6.92393 11.2009 6.28804 10.9375 5.625 10.9375ZM5.625 16.5625H2.5V13.4375H5.625V16.5625Z" fill="white"/>
<path d="M27.5 10.9375H24.375C23.712 10.9375 23.0761 11.2009 22.6072 11.6697C22.1384 12.1386 21.875 12.7745 21.875 13.4375V16.5625C21.875 17.2255 22.1384 17.8614 22.6072 18.3303C23.0761 18.7991 23.712 19.0625 24.375 19.0625H27.5C28.1631 19.0625 28.7989 18.7991 29.2678 18.3303C29.7366 17.8614 30 17.2255 30 16.5625V13.4375C30 12.7745 29.7366 12.1386 29.2678 11.6697C28.7989 11.2009 28.1631 10.9375 27.5 10.9375ZM27.5 16.5625H24.375V13.4375H27.5V16.5625Z" fill="white"/>
<path d="M5.625 0H2.5C1.83696 0 1.20107 0.263392 0.732233 0.732233C0.263392 1.20107 0 1.83696 0 2.5L0 5.625C0 6.28804 0.263392 6.92393 0.732233 7.39277C1.20107 7.86161 1.83696 8.125 2.5 8.125H5.625C6.28804 8.125 6.92393 7.86161 7.39277 7.39277C7.86161 6.92393 8.125 6.28804 8.125 5.625V2.5C8.125 1.83696 7.86161 1.20107 7.39277 0.732233C6.92393 0.263392 6.28804 0 5.625 0V0ZM5.625 5.625H2.5V2.5H5.625V5.625Z" fill="white"/>
<path d="M16.5625 21.875H13.4375C12.7745 21.875 12.1386 22.1384 11.6697 22.6072C11.2009 23.0761 10.9375 23.712 10.9375 24.375V27.5C10.9375 28.1631 11.2009 28.7989 11.6697 29.2678C12.1386 29.7366 12.7745 30 13.4375 30H16.5625C17.2255 30 17.8614 29.7366 18.3303 29.2678C18.7991 28.7989 19.0625 28.1631 19.0625 27.5V24.375C19.0625 23.712 18.7991 23.0761 18.3303 22.6072C17.8614 22.1384 17.2255 21.875 16.5625 21.875ZM16.5625 27.5H13.4375V24.375H16.5625V27.5Z" fill="white"/>
<path d="M16.5625 10.9375H13.4375C12.7745 10.9375 12.1386 11.2009 11.6697 11.6697C11.2009 12.1386 10.9375 12.7745 10.9375 13.4375V16.5625C10.9375 17.2255 11.2009 17.8614 11.6697 18.3303C12.1386 18.7991 12.7745 19.0625 13.4375 19.0625H16.5625C17.2255 19.0625 17.8614 18.7991 18.3303 18.3303C18.7991 17.8614 19.0625 17.2255 19.0625 16.5625V13.4375C19.0625 12.7745 18.7991 12.1386 18.3303 11.6697C17.8614 11.2009 17.2255 10.9375 16.5625 10.9375ZM16.5625 16.5625H13.4375V13.4375H16.5625V16.5625Z" fill="white"/>
<path d="M16.5625 0H13.4375C12.7745 0 12.1386 0.263392 11.6697 0.732233C11.2009 1.20107 10.9375 1.83696 10.9375 2.5V5.625C10.9375 6.28804 11.2009 6.92393 11.6697 7.39277C12.1386 7.86161 12.7745 8.125 13.4375 8.125H16.5625C17.2255 8.125 17.8614 7.86161 18.3303 7.39277C18.7991 6.92393 19.0625 6.28804 19.0625 5.625V2.5C19.0625 1.83696 18.7991 1.20107 18.3303 0.732233C17.8614 0.263392 17.2255 0 16.5625 0V0ZM16.5625 5.625H13.4375V2.5H16.5625V5.625Z" fill="white"/>
<path d="M27.5 0H24.375C23.712 0 23.0761 0.263392 22.6072 0.732233C22.1384 1.20107 21.875 1.83696 21.875 2.5V5.625C21.875 6.28804 22.1384 6.92393 22.6072 7.39277C23.0761 7.86161 23.712 8.125 24.375 8.125H27.5C28.1631 8.125 28.7989 7.86161 29.2678 7.39277C29.7366 6.92393 30 6.28804 30 5.625V2.5C30 1.83696 29.7366 1.20107 29.2678 0.732233C28.7989 0.263392 28.1631 0 27.5 0V0ZM27.5 5.625H24.375V2.5H27.5V5.625Z" fill="white"/>
</g>
<defs>
<clipPath id="clip0_114_21">
<rect width="30" height="30" fill="white"/>
</clipPath>
</defs>
</svg>
